<?xml version="1.0" encoding="utf-8"?>
<!-- Generator: Adobe Illustrator 17.0.0, SVG Export Plug-In . SVG Version: 6.00 Build 0)  -->
<!DOCTYPE svg PUBLIC "-//W3C//DTD SVG 1.1//EN" "http://www.w3.org/Graphics/SVG/1.1/DTD/svg11.dtd">
<svg version="1.1" id="Layer_1" xmlns="http://www.w3.org/2000/svg" xmlns:xlink="http://www.w3.org/1999/xlink" x="0px" y="0px"
	 width="504px" height="504px" viewBox="0 0 504 504" enable-background="new 0 0 504 504" xml:space="preserve">
<path fill="#9AE1ED" stroke="#51CAD8" stroke-width="12" stroke-miterlimit="10" d="M48.495,213.647
	c0,0,41.95,43.881,112.089-23.481c0,0,68.056,84.722,136.806,0c0,0,73.395,79.718,134.267-7.016c0,0-31.128-129.79-188.253-139.512
	C243.403,43.639,82.934,37.822,48.495,213.647z"/>
<path fill="#51CAD8" stroke="#FFFFFF" stroke-width="13" stroke-miterlimit="10" d="M46.694,240.347
	c0,0,66.972,39.319,112.972-21.347c0,0,62,74.667,143.333,0c0,0,80.465,68.877,133.899-14.228c0,0,24.013,94.008-50.943,171.118
	c0,0-48.956,58.221-133.956,61.166c0,0-95.969,10.463-168.985-82.796C83.015,354.259,44.389,303.694,46.694,240.347z"/>
<rect x="204.5" y="275.719" fill="none" width="66.5" height="36"/>
<text transform="matrix(1 0 0 1 204.5 307.2188)" fill="#FFFFFF" font-family="'NexaLight'" font-size="45" letter-spacing="-1">La</text>
<rect x="127" y="322" fill="none" width="260" height="77"/>
<text transform="matrix(1 0 0 1 127 375.8223)" fill="#FFFFFF" font-family="'NexaBold'" font-size="77">Flaque</text>
</svg>
